<svg xmlns="http://www.w3.org/2000/svg" width="128" height="128">
  <defs>
    <clipPath id="bg">
      <rect width="124" height="124" x="2" y="2" rx="14"/>
    </clipPath>
  </defs>
  <g clip-path="url(#bg)">
    <rect x="2" y="2" width="124" height="40" fill="#1a1c2c"/>
    <rect x="2" y="42" width="124" height="40" fill="#2f3556"/>
    <rect x="2" y="82" width="124" height="44" fill="#4c5680"/>

    <circle cx="20" cy="18" r="1.6" fill="#ffffff"/>
    <circle cx="100" cy="16" r="1.4" fill="#ffffff"/>
    <circle cx="110" cy="28" r="1.2" fill="#ffffff"/>
    <circle cx="16" cy="34" r="1.1" fill="#ffffff"/>

    <polygon points="2,95 20,68 36,80 52,58 64,50 78,62 94,74 112,60 126,86 126,126 2,126" fill="#333c63"/>
    <polygon points="2,126 2,100 22,72 40,88 58,66 64,60 74,66 90,80 108,66 126,92 126,126" fill="#5c4a3b"/>

    <!-- A small miracle in the sky, arcing over the highest peak. -->
    <g fill="none" stroke-linecap="round">
      <path d="M 40,54 A 24,24 0 0 1 88,54" stroke="#e0483a" stroke-width="4"/>
      <path d="M 44,54 A 20,20 0 0 1 84,54" stroke="#e08a3a" stroke-width="4"/>
      <path d="M 48,54 A 16,16 0 0 1 80,54" stroke="#e0d23a" stroke-width="4"/>
      <path d="M 52,54 A 12,12 0 0 1 76,54" stroke="#4ac96b" stroke-width="4"/>
      <path d="M 56,54 A 8,8 0 0 1 72,54" stroke="#3a8ee0" stroke-width="4"/>
      <path d="M 60,54 A 4,4 0 0 1 68,54" stroke="#8a4ae0" stroke-width="4"/>
    </g>
    <ellipse cx="34" cy="57" rx="6" ry="3.5" fill="#d3d3d3"/>
    <ellipse cx="40" cy="55" rx="5.5" ry="3" fill="#d3d3d3"/>
    <ellipse cx="88" cy="55" rx="5.5" ry="3" fill="#d3d3d3"/>
    <ellipse cx="94" cy="57" rx="6" ry="3.5" fill="#d3d3d3"/>

    <rect x="2" y="112" width="124" height="14" fill="#6b4a2f"/>

    <rect x="42" y="62" width="44" height="10" fill="#4a3320"/>
    <rect x="44" y="70" width="8" height="46" fill="#7a5a34"/>
    <rect x="76" y="70" width="8" height="46" fill="#7a5a34"/>
    <rect x="52" y="72" width="24" height="44" fill="#140f0d"/>

    <rect x="34" y="90" width="3" height="16" fill="#4a3320"/>
    <circle cx="35.5" cy="86" r="5" fill="#ffb347"/>
    <circle cx="35.5" cy="86" r="2.6" fill="#ffe066"/>

    <!-- A cow keeping watch over the mine, the "Moos" in the title. -->
    <line x1="123" y1="103" x2="126" y2="111" stroke="#f5f0e6" stroke-width="1.5"/>
    <circle cx="126" cy="112" r="1.5" fill="#2b2320"/>
    <line x1="106" y1="112" x2="106" y2="123" stroke="#f5f0e6" stroke-width="3" stroke-linecap="round"/>
    <line x1="119" y1="112" x2="119" y2="123" stroke="#f5f0e6" stroke-width="3" stroke-linecap="round"/>
    <ellipse cx="112" cy="106" rx="13" ry="7" fill="#f5f0e6"/>
    <ellipse cx="109" cy="104" rx="3" ry="2.4" fill="#2b2320"/>
    <ellipse cx="117" cy="109" rx="2.6" ry="2" fill="#2b2320"/>
    <line x1="96" y1="96" x2="95" y2="91" stroke="#f5f0e6" stroke-width="1.5"/>
    <line x1="100" y1="96" x2="101" y2="91" stroke="#f5f0e6" stroke-width="1.5"/>
    <polygon points="92,99 88,96 93,103" fill="#f5f0e6"/>
    <polygon points="104,99 108,96 103,103" fill="#f5f0e6"/>
    <circle cx="98" cy="101" r="6" fill="#f5f0e6"/>
    <ellipse cx="93" cy="103" rx="3.2" ry="2.2" fill="#e8b4a0"/>
  </g>
  <rect width="124" height="124" x="2" y="2" fill="none" stroke="#212532" stroke-width="4" rx="14"/>
</svg>
